<svg xmlns="http://www.w3.org/2000/svg" fill="none">

<symbol id="left"  viewBox="0 0 24 24" fill="none">
<path d="M15 6L9 12.0001L15 18" stroke="currentColor" stroke-width="1.5" stroke-miterlimit="16" stroke-linecap="round" stroke-linejoin="round"></path>
</symbol>

<symbol id="right"  viewBox="0 0 24 24" fill="none">
<path d="M9.00005 6L15 12L9 18" stroke="currentColor" stroke-width="1.5" stroke-miterlimit="16" stroke-linecap="round" stroke-linejoin="round"></path>
</symbol>

<symbol id="down"  viewBox="0 0 24 24" fill="none">
     <path d="M19.5 8.25L12 15.75L4.5 8.25" stroke="currentColor" stroke-width="1.5" stroke-linecap="round" stroke-linejoin="round" />
</symbol>

<symbol id="close"  viewBox="0 0 24 24" fill="none"> 
<path d="M6 18L18 6M6 6L18 18" stroke="currentColor" stroke-width="1.5" stroke-linecap="round" stroke-linejoin="round"/>
</symbol>

<symbol id="search"  viewBox="0 0 24 24" fill="none"> 
<path d="M20.4 21L15.5497 16.1497M15.5497 16.1497C16.8625 14.8369 17.6 13.0564 17.6 11.1999C17.6 9.34344 16.8625 7.56297 15.5497 6.25022C14.237 4.93748 12.4565 4.19998 10.6 4.19998C8.74349 4.19998 6.96302 4.93748 5.65028 6.25022C4.33753 7.56297 3.60004 9.34344 3.60004 11.1999C3.60004 13.0564 4.33753 14.8369 5.65028 16.1497C6.96302 17.4624 8.74349 18.1999 10.6 18.1999C12.4565 18.1999 14.237 17.4624 15.5497 16.1497Z" stroke="currentColor" stroke-width="1.5" stroke-linecap="round" stroke-linejoin="round"/>
</symbol
>
<symbol id="refresh"  viewBox="0 0 24 24" fill="none"> 
<path d="M16.023 9.348H21.015L17.834 6.165C16.8099 5.14087 15.5342 4.40439 14.1352 4.02961C12.7362 3.65482 11.2632 3.65493 9.86428 4.02992C8.46534 4.40492 7.18977 5.14159 6.16581 6.16587C5.14184 7.19015 4.40557 8.46595 4.03101 9.865M2.98501 19.644V14.652M2.98501 14.652H7.97701M2.98501 14.652L6.16501 17.835C7.18912 18.8591 8.4648 19.5956 9.8638 19.9704C11.2628 20.3452 12.7358 20.3451 14.1347 19.9701C15.5337 19.5951 16.8092 18.8584 17.8332 17.8341C18.8572 16.8099 19.5934 15.5341 19.968 14.135M21.015 4.356V9.346" stroke="currentColor" stroke-width="1.5" stroke-linecap="round" stroke-linejoin="round"/>
</symbol>
 
<symbol id="sun" viewBox="0 0 24 24" fill="none">
    <path d="M17 12C17 14.7614 14.7614 17 12 17C9.23858 17 7 14.7614 7 12C7 9.23858 9.23858 7 12 7C14.7614 7 17 9.23858 17 12Z" stroke="currentColor" stroke-width="1.5" stroke-linecap="round" stroke-linejoin="round"/>
    <path d="M11.9982 2V4M11.9982 20V22M18.9981 5.00098L17.499 6.5M6.5 17.5L5 19M22 12H20M4 12H2M19 19.001L17.5 17.501M6.49902 6.5L5 5.00098" stroke="currentColor" stroke-width="1.5" stroke-linecap="round" stroke-linejoin="round"/>
</symbol>

<symbol id="moon" viewBox="0 0 24 24" fill="none">
    <path xmlns="http://www.w3.org/2000/svg" d="M21.5 14.0784C20.3003 14.7189 18.9301 15.0821 17.4751 15.0821C12.7491 15.0821 8.91792 11.2509 8.91792 6.52485C8.91792 5.06986 9.28105 3.69968 9.92163 2.5C5.66765 3.49698 2.5 7.31513 2.5 11.8731C2.5 17.1899 6.8101 21.5 12.1269 21.5C16.6849 21.5 20.503 18.3324 21.5 14.0784Z" stroke="currentColor" stroke-width="1.5" stroke-linecap="round" stroke-linejoin="round"/>
</symbol>
 
<symbol id="plus" viewBox="0 0 24 24" fill="none"> 
    <path d="M12 4.5V19.5M19.5 12H4.5" stroke="currentColor" stroke-width="1.5" stroke-linecap="round" stroke-linejoin="round"/>
</symbol>

<symbol id="eye" viewBox="0 0 19 18" fill="none" >
    <path d="M2.02701 9.2415C1.97525 9.08594 1.97525 8.91781 2.02701 8.76225C3.06726 5.6325 6.02001 3.375 9.50001 3.375C12.9785 3.375 15.9298 5.63025 16.9723 8.7585C17.0248 8.91375 17.0248 9.08175 16.9723 9.23775C15.9328 12.3675 12.98 14.625 9.50001 14.625C6.02151 14.625 3.06951 12.3697 2.02701 9.2415Z" stroke="currentColor" stroke-width="1.5" stroke-linecap="round" stroke-linejoin="round"/>
    <path d="M11.75 9C11.75 9.59674 11.5129 10.169 11.091 10.591C10.669 11.0129 10.0967 11.25 9.5 11.25C8.90326 11.25 8.33097 11.0129 7.90901 10.591C7.48705 10.169 7.25 9.59674 7.25 9C7.25 8.40326 7.48705 7.83097 7.90901 7.40901C8.33097 6.98705 8.90326 6.75 9.5 6.75C10.0967 6.75 10.669 6.98705 11.091 7.40901C11.5129 7.83097 11.75 8.40326 11.75 9Z" stroke="currentColor" stroke-width="1.5" stroke-linecap="round" stroke-linejoin="round"/>
</symbol>

<symbol id="eye-slash" viewBox="0 0 19 18" fill="none" >
    <path d="M3.48494 6.16725C2.78328 6.99538 2.2608 7.9599 1.95044 9C2.91944 12.2535 5.93294 14.625 9.49994 14.625C10.2447 14.625 10.9647 14.5215 11.6472 14.3287M5.17094 4.671C6.4554 3.82336 7.961 3.37262 9.49994 3.375C13.0669 3.375 16.0797 5.7465 17.0487 8.9985C16.5176 10.7755 15.3777 12.3087 13.8289 13.329M5.17094 4.671L2.74994 2.25M5.17094 4.671L7.90844 7.4085M13.8289 13.329L16.2499 15.75M13.8289 13.329L11.0914 10.5915C11.3004 10.3826 11.4661 10.1345 11.5792 9.86149C11.6923 9.58848 11.7505 9.29587 11.7505 9.00037C11.7505 8.70488 11.6923 8.41227 11.5792 8.13926C11.4661 7.86626 11.3004 7.6182 11.0914 7.40925C10.8825 7.2003 10.6344 7.03455 10.3614 6.92147C10.0884 6.80839 9.79581 6.75018 9.50031 6.75018C9.20481 6.75018 8.91221 6.80839 8.6392 6.92147C8.3662 7.03455 8.11814 7.2003 7.90919 7.40925M11.0907 10.5908L7.90994 7.41" stroke="currentColor" stroke-width="1.5" stroke-linecap="round" stroke-linejoin="round"/>
</symbol>

<symbol id="delete" viewBox="0 0 20 20" fill="none">
 <path d="M12.2833 7.49995L11.995 14.9999M8.005 14.9999L7.71667 7.49995M16.0233 4.82495C16.3083 4.86828 16.5917 4.91411 16.875 4.96328M16.0233 4.82495L15.1333 16.3941C15.097 16.8651 14.8842 17.3051 14.5375 17.626C14.1908 17.9469 13.7358 18.1251 13.2633 18.1249H6.73667C6.26425 18.1251 5.80919 17.9469 5.46248 17.626C5.11578 17.3051 4.90299 16.8651 4.86667 16.3941L3.97667 4.82495M16.0233 4.82495C15.0616 4.67954 14.0948 4.56919 13.125 4.49411M3.97667 4.82495C3.69167 4.86745 3.40833 4.91328 3.125 4.96245M3.97667 4.82495C4.93844 4.67955 5.9052 4.56919 6.875 4.49411M13.125 4.49411V3.73078C13.125 2.74745 12.3667 1.92745 11.3833 1.89661C10.4613 1.86714 9.53865 1.86714 8.61667 1.89661C7.63333 1.92745 6.875 2.74828 6.875 3.73078V4.49411M13.125 4.49411C11.0448 4.33334 8.95523 4.33334 6.875 4.49411" stroke="currentColor" stroke-width="1.5" stroke-linecap="round" stroke-linejoin="round"/>
</symbol> 

<symbol fill="none" viewBox="0 0 20 20" id="info"> 
    <path d="M9.375 9.375L9.40917 9.35833C9.51602 9.30495 9.63594 9.2833 9.75472 9.29596C9.8735 9.30862 9.98616 9.35505 10.0794 9.42976C10.1726 9.50446 10.2424 9.60432 10.2806 9.71749C10.3189 9.83066 10.3238 9.95242 10.295 10.0683L9.705 12.4317C9.67595 12.5476 9.68078 12.6695 9.71891 12.7828C9.75704 12.8961 9.82687 12.9961 9.92011 13.071C10.0134 13.1458 10.1261 13.1923 10.245 13.205C10.3639 13.2177 10.4839 13.196 10.5908 13.1425L10.625 13.125M17.5 10C17.5 10.9849 17.306 11.9602 16.9291 12.8701C16.5522 13.7801 15.9997 14.6069 15.3033 15.3033C14.6069 15.9997 13.7801 16.5522 12.8701 16.9291C11.9602 17.306 10.9849 17.5 10 17.5C9.01509 17.5 8.03982 17.306 7.12987 16.9291C6.21993 16.5522 5.39314 15.9997 4.6967 15.3033C4.00026 14.6069 3.44781 13.7801 3.0709 12.8701C2.69399 11.9602 2.5 10.9849 2.5 10C2.5 8.01088 3.29018 6.10322 4.6967 4.6967C6.10322 3.29018 8.01088 2.5 10 2.5C11.9891 2.5 13.8968 3.29018 15.3033 4.6967C16.7098 6.10322 17.5 8.01088 17.5 10ZM10 6.875H10.0067V6.88167H10V6.875Z" stroke="currentColor" stroke-width="1.5" stroke-linecap="round" stroke-linejoin="round" />
</symbol>
 
<symbol id="link" fill="none" viewBox="0 0 24 24">
    <path d="M10 13.229C10.1416 13.4609 10.3097 13.6804 10.5042 13.8828C11.7117 15.1395 13.5522 15.336 14.9576 14.4722C15.218 14.3121 15.4634 14.1157 15.6872 13.8828L18.9266 10.5114C20.3578 9.02184 20.3578 6.60676 18.9266 5.11718C17.4953 3.6276 15.1748 3.62761 13.7435 5.11718L13.03 5.85978" stroke="currentColor" stroke-width="1.5" stroke-linecap="round" />
    <path d="M10.9703 18.14L10.2565 18.8828C8.82526 20.3724 6.50471 20.3724 5.07345 18.8828C3.64218 17.3932 3.64218 14.9782 5.07345 13.4886L8.31287 10.1172C9.74413 8.62761 12.0647 8.6276 13.4959 10.1172C13.6904 10.3195 13.8584 10.539 14 10.7708" stroke="currentColor" stroke-width="1.5" stroke-linecap="round" />
</symbol> 

<symbol id="lang" viewBox="0 0 24 24" fill="none">
    <path d="M8.5 19L13.75 7.75L19 19M10 16H17.5M1 3.621C2.9904 3.37332 4.99425 3.24941 7 3.25M7 3.25C8.12 3.25 9.233 3.288 10.334 3.364M7 3.25V1M10.334 3.364C9.176 8.658 5.69 13.08 1 15.502M10.334 3.364C11.23 3.425 12.119 3.511 13 3.621M8.411 12.116C6.77097 10.4486 5.47113 8.47799 4.584 6.314" stroke="currentColor" stroke-width="1.5" stroke-linecap="round" stroke-linejoin="round" />
</symbol>
</svg>